<svg width="121" height="20" viewBox="0 0 121 20" fill="none" xmlns="http://www.w3.org/2000/svg">
<g clip-path="url(#clip0_27041_61143)">
<path d="M44.4583 0.679688C39.5632 3.90461 35.3147 8.01465 31.9358 12.7943C30.7582 14.4568 29.6884 16.1963 28.734 18.0127C28.2491 18.9286 26.9406 18.9286 26.4557 18.0127C25.5013 16.1963 24.4315 14.4568 23.2539 12.7943C24.5854 11.2935 26.0401 9.90804 27.5949 8.63809C32.3899 4.70507 38.1393 1.91886 44.4583 0.679688Z" fill="#E46C27"/>
<path d="M23.2688 12.7944C24.6003 11.2936 26.055 9.90816 27.6097 8.6382C22.8223 4.71288 17.0652 1.91897 10.7539 0.6875C15.6413 3.89703 19.8899 8.01477 23.2688 12.7944Z" fill="white"/>
<path d="M34.3841 0.679688C29.489 3.90461 25.2404 8.01465 21.8616 12.7943C20.684 14.4568 19.6141 16.1963 18.6597 18.0127C18.1749 18.9286 16.8664 18.9286 16.3815 18.0127C15.4271 16.1963 14.3573 14.4568 13.1797 12.7943C14.5112 11.2935 15.9659 9.90804 17.5206 8.63809C22.3157 4.70507 28.0651 1.91886 34.3841 0.679688Z" fill="#E46C27"/>
<path d="M13.1867 12.7944C14.5183 11.2936 15.9729 9.90816 17.5277 8.6382C12.7403 4.71288 6.98318 1.91897 0.671875 0.6875C5.55929 3.89703 9.80787 8.01477 13.1867 12.7944Z" fill="white"/>
<path d="M50.031 14.8461C49.5461 14.8461 49.2229 14.5921 49.0381 14.0841L46.0749 5.69473C45.9672 5.38686 45.9903 5.14056 46.1365 4.93275C46.2827 4.72494 46.529 4.61719 46.8831 4.61719C47.1371 4.61719 47.3372 4.67876 47.4834 4.79421C47.622 4.90966 47.7374 5.10208 47.8221 5.35607L50.0926 12.1061L52.4786 5.37147C52.6556 4.87118 52.9635 4.61719 53.3868 4.61719C53.61 4.61719 53.7947 4.67876 53.9256 4.80191C54.0564 4.92506 54.1719 5.11747 54.2642 5.38686L56.604 12.2138L58.9438 5.35607C59.0285 5.10978 59.1439 4.92506 59.2825 4.80191C59.421 4.67876 59.6211 4.61719 59.8674 4.61719C60.1753 4.61719 60.3908 4.72494 60.537 4.93275C60.6756 5.14056 60.6987 5.39456 60.5986 5.69473L57.6046 14.0918C57.5122 14.3458 57.3891 14.5382 57.2351 14.6614C57.0812 14.7845 56.8811 14.8461 56.6271 14.8461C56.3731 14.8461 56.1653 14.7845 56.0191 14.6614C55.8651 14.5382 55.7497 14.3458 55.6496 14.0764L53.3329 7.50345L51.0085 14.0841C50.9161 14.3381 50.793 14.5306 50.6468 14.6537C50.4851 14.7845 50.285 14.8461 50.031 14.8461Z" fill="#E46C27"/>
<path d="M63.1053 6.37042C62.7744 6.37042 62.5127 6.28575 62.3357 6.12412C62.151 5.96249 62.0586 5.73159 62.0586 5.43911C62.0586 5.13125 62.151 4.90804 62.3357 4.74641C62.5204 4.58478 62.7744 4.50781 63.1053 4.50781C63.8058 4.50781 64.1521 4.82338 64.1521 5.44681C64.1521 6.07025 63.8058 6.37042 63.1053 6.37042ZM63.1053 14.8291C62.8206 14.8291 62.6051 14.7444 62.4511 14.5751C62.2972 14.4058 62.2279 14.1672 62.2279 13.867V8.65634C62.2279 8.00982 62.5204 7.69425 63.1053 7.69425C63.7057 7.69425 63.9982 8.01751 63.9982 8.65634V13.867C63.9982 14.1749 63.9212 14.4058 63.775 14.5751C63.621 14.7444 63.3978 14.8291 63.1053 14.8291Z" fill="#E46C27"/>
<path d="M68.3808 14.8682C67.9729 14.8682 67.5419 14.822 67.0877 14.7373C66.6336 14.6527 66.2257 14.5064 65.864 14.2986C65.6639 14.1832 65.5407 14.0446 65.4945 13.883C65.4484 13.7214 65.456 13.5597 65.5176 13.4135C65.5792 13.2673 65.6792 13.1595 65.8332 13.0902C65.9794 13.021 66.1564 13.0364 66.3489 13.1364C66.726 13.3134 67.0801 13.4443 67.411 13.5136C67.742 13.5828 68.0652 13.6213 68.3885 13.6213C68.8426 13.6213 69.1813 13.5444 69.4045 13.3904C69.6277 13.2365 69.7354 13.0287 69.7354 12.7747C69.7354 12.3745 69.4429 12.1205 68.858 12.0127L67.4341 11.7433C66.2334 11.5201 65.6331 10.889 65.6331 9.87302C65.6331 9.41891 65.7562 9.02638 66.0102 8.69542C66.2565 8.36446 66.6106 8.11047 67.0493 7.93345C67.488 7.75642 68.0037 7.66406 68.5809 7.66406C69.4122 7.66406 70.1587 7.84878 70.8053 8.21823C70.9823 8.31059 71.09 8.44143 71.1285 8.61076C71.1593 8.77239 71.1439 8.93402 71.0669 9.08026C70.99 9.2265 70.8822 9.32655 70.736 9.39582C70.5821 9.4574 70.405 9.442 70.2126 9.34195C69.9201 9.18801 69.6354 9.08026 69.3737 9.01099C69.1043 8.94172 68.8503 8.91093 68.604 8.91093C68.1422 8.91093 67.7958 8.99559 67.5726 9.14953C67.3494 9.31116 67.2417 9.52667 67.2417 9.78835C67.2417 10.204 67.5111 10.458 68.0498 10.5503L69.4737 10.8197C70.0895 10.9352 70.5513 11.143 70.8668 11.4431C71.1824 11.751 71.344 12.1512 71.344 12.6669C71.344 13.3596 71.0746 13.8984 70.5359 14.2909C69.9971 14.6681 69.2813 14.8682 68.3808 14.8682Z" fill="#E46C27"/>
<path d="M76.185 14.868C75.3999 14.868 74.7226 14.7217 74.1531 14.4292C73.5835 14.1368 73.1448 13.7211 72.8446 13.1824C72.5367 12.6436 72.3828 12.0048 72.3828 11.2659C72.3828 10.5501 72.529 9.91897 72.8292 9.3802C73.1294 8.84143 73.5373 8.41811 74.0607 8.11024C74.5841 7.80237 75.1844 7.64844 75.854 7.64844C76.8392 7.64844 77.6166 7.964 78.1861 8.58744C78.7634 9.21087 79.0482 10.0652 79.0482 11.1427C79.0482 11.4968 78.825 11.6661 78.3632 11.6661H74.0761C74.2069 12.9053 74.915 13.521 76.2004 13.521C76.4467 13.521 76.7238 13.4902 77.0316 13.4287C77.3395 13.3671 77.632 13.2593 77.9091 13.1054C78.1553 12.9669 78.3632 12.9207 78.5325 12.9669C78.7018 13.0207 78.825 13.1208 78.8942 13.2747C78.9635 13.4287 78.9789 13.598 78.925 13.775C78.8711 13.9597 78.7403 14.1214 78.5171 14.2522C78.1861 14.46 77.809 14.614 77.3703 14.714C76.9547 14.8218 76.5544 14.868 76.185 14.868ZM75.931 8.85682C75.4153 8.85682 74.992 9.01845 74.6687 9.34171C74.3455 9.66498 74.1531 10.096 74.0838 10.6502H77.5781C77.5396 10.0729 77.3857 9.63419 77.1009 9.32632C76.8238 9.01076 76.4313 8.85682 75.931 8.85682Z" fill="#E46C27"/>
<path d="M80.7242 14.8461C80.3933 14.8461 80.1547 14.7307 80.0161 14.5075C79.8776 14.2843 79.8776 14.0072 80.0315 13.6839L83.7798 5.38686C83.903 5.11747 84.0492 4.91736 84.2262 4.79421C84.4032 4.67876 84.6034 4.61719 84.8343 4.61719C85.0498 4.61719 85.2499 4.67876 85.4269 4.79421C85.6039 4.90966 85.7502 5.10978 85.8733 5.38686L89.637 13.6839C89.7909 14.0149 89.7986 14.292 89.6678 14.5152C89.537 14.7384 89.306 14.8461 88.9828 14.8461C88.7211 14.8461 88.5133 14.7845 88.367 14.6537C88.2208 14.5229 88.09 14.3304 87.9745 14.0611L87.2664 12.414H82.3867L81.694 14.0611C81.5709 14.3304 81.4477 14.5306 81.3092 14.6614C81.1629 14.7845 80.9705 14.8461 80.7242 14.8461ZM84.7958 6.6953L82.9948 10.967H86.6276L84.8266 6.6953H84.7958Z" fill="white"/>
<path d="M93.6065 14.8691C92.9984 14.8691 92.4674 14.7229 92.0133 14.4304C91.5515 14.1379 91.1974 13.7223 90.9434 13.1758C90.6894 12.637 90.5586 11.9905 90.5586 11.2516C90.5586 10.5051 90.6894 9.86623 90.9434 9.32746C91.1974 8.79639 91.5592 8.38076 92.0133 8.08829C92.4751 7.79581 93.0061 7.64958 93.6065 7.64958C94.0991 7.64958 94.5455 7.75733 94.938 7.98053C95.3383 8.19604 95.6307 8.48852 95.8308 8.85026V5.50219C95.8308 4.90185 96.1233 4.60938 96.7083 4.60938C97.3086 4.60938 97.6011 4.90955 97.6011 5.50219V13.9301C97.6011 14.5381 97.3086 14.8383 96.7237 14.8383C96.1387 14.8383 95.8462 14.5304 95.8462 13.9301V13.6299C95.6461 14.0071 95.3536 14.3072 94.9534 14.5304C94.5609 14.7613 94.1068 14.8691 93.6065 14.8691ZM94.0991 13.5222C94.6302 13.5222 95.0535 13.3297 95.3767 12.9449C95.7 12.5601 95.8616 11.9982 95.8616 11.2439C95.8616 10.4897 95.7 9.92011 95.3767 9.54297C95.0535 9.16583 94.6302 8.98111 94.0991 8.98111C93.568 8.98111 93.1447 9.16583 92.8214 9.54297C92.4982 9.92011 92.3365 10.482 92.3365 11.2439C92.3365 11.9905 92.4982 12.5524 92.8214 12.9449C93.1524 13.3297 93.5757 13.5222 94.0991 13.5222Z" fill="white"/>
<path d="M100.354 14.8449C99.769 14.8449 99.4766 14.537 99.4766 13.9367V8.57204C99.4766 7.9717 99.769 7.67922 100.346 7.67922C100.924 7.67922 101.216 7.9794 101.216 8.57204V8.85682C101.424 8.47968 101.709 8.17951 102.086 7.9717C102.455 7.75619 102.879 7.64844 103.363 7.64844C104.402 7.64844 105.087 8.10254 105.411 9.01076C105.626 8.58744 105.942 8.24878 106.35 8.01018C106.758 7.77158 107.219 7.64844 107.735 7.64844C109.298 7.64844 110.075 8.60283 110.075 10.5039V13.9367C110.075 14.5447 109.775 14.8449 109.182 14.8449C108.597 14.8449 108.305 14.537 108.305 13.9367V10.5732C108.305 10.0421 108.22 9.65728 108.043 9.41098C107.866 9.16469 107.574 9.04154 107.158 9.04154C106.696 9.04154 106.334 9.20317 106.065 9.52644C105.796 9.8497 105.665 10.3038 105.665 10.8811V13.929C105.665 14.537 105.372 14.8372 104.787 14.8372C104.187 14.8372 103.894 14.5293 103.894 13.929V10.5655C103.894 10.0344 103.81 9.64958 103.633 9.40329C103.456 9.15699 103.171 9.03385 102.755 9.03385C102.294 9.03385 101.932 9.19548 101.662 9.51874C101.401 9.842 101.262 10.2961 101.262 10.8734V13.9213C101.247 14.537 100.954 14.8449 100.354 14.8449Z" fill="white"/>
<path d="M112.773 6.37042C112.442 6.37042 112.181 6.28575 112.004 6.12412C111.819 5.95479 111.727 5.73159 111.727 5.43911C111.727 5.13125 111.819 4.90804 112.004 4.74641C112.188 4.58478 112.442 4.50781 112.773 4.50781C113.474 4.50781 113.82 4.82338 113.82 5.44681C113.82 6.07025 113.474 6.37042 112.773 6.37042ZM112.773 14.8291C112.489 14.8291 112.273 14.7444 112.119 14.5751C111.965 14.4058 111.896 14.1672 111.896 13.867V8.65634C111.896 8.00982 112.188 7.69425 112.773 7.69425C113.374 7.69425 113.666 8.01751 113.666 8.65634V13.867C113.666 14.1749 113.589 14.4058 113.443 14.5751C113.289 14.7444 113.066 14.8291 112.773 14.8291Z" fill="white"/>
<path d="M118.691 14.8684C116.859 14.8684 115.943 13.9602 115.943 12.1438V9.11896H115.204C114.735 9.11896 114.496 8.89576 114.496 8.44935C114.496 8.00294 114.735 7.77973 115.204 7.77973H115.943V6.49438C115.943 5.89404 116.243 5.60156 116.836 5.60156C117.421 5.60156 117.713 5.90173 117.713 6.49438V7.78743H119.222C119.691 7.78743 119.93 8.01063 119.93 8.45704C119.93 8.90345 119.691 9.12666 119.222 9.12666H117.713V12.0514C117.713 12.5055 117.813 12.8442 118.013 13.0751C118.214 13.306 118.529 13.4137 118.976 13.4137C119.137 13.4137 119.283 13.3983 119.399 13.3675C119.522 13.3368 119.63 13.3214 119.73 13.306C119.845 13.2983 119.938 13.3368 120.015 13.4137C120.092 13.4984 120.13 13.66 120.13 13.8986C120.13 14.091 120.099 14.2604 120.038 14.3989C119.976 14.5451 119.868 14.6452 119.707 14.7068C119.584 14.7453 119.422 14.7837 119.222 14.8145C119.014 14.853 118.845 14.8684 118.691 14.8684Z" fill="white"/>
</g>
<defs>
<clipPath id="clip0_27041_61143">
<rect width="121" height="19.3726" fill="white"/>
</clipPath>
</defs>
</svg>
